<svg width="1371" height="296" viewBox="0 0 1371 296" fill="none" xmlns="http://www.w3.org/2000/svg">
<path d="M946.5 87.7815C946.5 112.248 927.589 131.882 904.5 131.882C881.411 131.882 862.5 112.248 862.5 87.7815C862.5 63.3154 881.411 43.6807 904.5 43.6807C927.589 43.6807 946.5 63.3154 946.5 87.7815Z" stroke="white" stroke-opacity="0.25" stroke-width="5"/>
<path d="M398.597 68.5056L483.28 44.7435L460.589 133.425L398.597 68.5056Z" stroke="white" stroke-opacity="0.25" stroke-width="5"/>
<path d="M10.2619 171.238L45 108.23L79.7381 171.238H10.2619Z" stroke="white" stroke-opacity="0.25" stroke-width="5"/>
<path d="M1147.26 83.1867L1182 20.178L1216.74 83.1867H1147.26Z" stroke="white" stroke-opacity="0.25" stroke-width="5"/>
<path d="M1368.5 220.12C1368.5 250.948 1344.66 275.74 1315.5 275.74C1286.34 275.74 1262.5 250.948 1262.5 220.12C1262.5 189.292 1286.34 164.5 1315.5 164.5C1344.66 164.5 1368.5 189.292 1368.5 220.12Z" stroke="white" stroke-opacity="0.25" stroke-width="5"/>
<path d="M368.5 237.12C368.5 267.948 344.664 292.74 315.5 292.74C286.336 292.74 262.5 267.948 262.5 237.12C262.5 206.292 286.336 181.5 315.5 181.5C344.664 181.5 368.5 206.292 368.5 237.12Z" stroke="white" stroke-opacity="0.25" stroke-width="5"/>
</svg>
