<svg width="1440" height="237" viewBox="0 0 1440 237" fill="none" xmlns="http://www.w3.org/2000/svg">
<rect y="15.0002" width="1440" height="223.056" fill="black"/>
<path d="M976 87.7814C976 113.01 956.481 133.382 932.5 133.382C908.519 133.382 889 113.01 889 87.7814C889 62.5528 908.519 42.1805 932.5 42.1805C956.481 42.1805 976 62.5528 976 87.7814Z" stroke="white" stroke-width="2"/>
<path d="M423.767 67.7114L513.352 42.5739L489.348 136.389L423.767 67.7114Z" stroke="white" stroke-width="2"/>
<path d="M35.7221 172.738L73 105.123L110.278 172.738H35.7221Z" stroke="#FF0000" stroke-width="2"/>
<path d="M1455 200.88C1455 232.471 1430.56 258 1400.5 258C1370.44 258 1346 232.471 1346 200.88C1346 169.289 1370.44 143.76 1400.5 143.76C1430.56 143.76 1455 169.289 1455 200.88Z" stroke="#FF0000" stroke-width="2"/>
</svg>
