<svg width="214" height="148" viewBox="0 0 214 148" fill="none" xmlns="http://www.w3.org/2000/svg">
<path fill-rule="evenodd" clip-rule="evenodd" d="M149.904 97.3207L213.4 58.0842L149.904 18.8477L149.904 97.3207ZM153.237 91.1432L206.869 58.002L153.237 24.8607L153.237 91.1432Z" fill="#FF0000"/>
<path d="M102.642 106.761L102.642 8.66959L182.012 57.7152L102.642 106.761Z" fill="#040202"/>
<path fill-rule="evenodd" clip-rule="evenodd" d="M102.642 106.761L182.012 57.7152L102.642 8.66959L102.642 106.761ZM105.974 100.583L175.481 57.633L105.974 14.6827L105.974 100.583Z" fill="#FF0000"/>
<path d="M47.6222 117.71L47.6222 2.58549e-06L142.867 58.8548L47.6222 117.71Z" fill="black"/>
<path fill-rule="evenodd" clip-rule="evenodd" d="M47.6222 117.71L142.867 58.8548L47.6222 2.58549e-06L47.6222 117.71ZM50.9545 111.532L136.335 58.7726L50.9546 6.01306L50.9545 111.532Z" fill="#FF0000"/>
<path d="M25.2478 40.7925H201.096V76.8681H25.2478V40.7925Z" fill="black"/>
<path d="M51.7495 71.1282C50.6861 71.1282 49.7703 70.8897 49.0023 70.4127C48.2461 69.9357 47.6612 69.2883 47.2476 68.4706C46.8459 67.6529 46.645 66.733 46.645 65.7108V50.9579C46.645 49.9244 46.8459 49.0045 47.2476 48.1981C47.6612 47.3804 48.2461 46.733 49.0023 46.256C49.7703 45.779 50.6861 45.5405 51.7495 45.5405C52.8129 45.5405 53.7227 45.779 54.4789 46.256C55.247 46.733 55.8319 47.3804 56.2336 48.1981C56.6472 49.0158 56.8539 49.9357 56.8539 50.9579V65.7108C56.8539 66.733 56.6472 67.6529 56.2336 68.4706C55.8319 69.2883 55.247 69.9357 54.4789 70.4127C53.7227 70.8897 52.8129 71.1282 51.7495 71.1282ZM51.7495 67.5507C52.2221 67.5507 52.553 67.3633 52.742 66.9885C52.9311 66.6023 53.0256 66.1765 53.0256 65.7108V50.9579C53.0256 50.4922 52.9252 50.072 52.7243 49.6972C52.5234 49.3111 52.1985 49.118 51.7495 49.118C51.3123 49.118 50.9874 49.3111 50.7747 49.6972C50.5738 50.072 50.4734 50.4922 50.4734 50.9579V65.7108C50.4734 66.1765 50.5738 66.6023 50.7747 66.9885C50.9755 67.3633 51.3005 67.5507 51.7495 67.5507Z" fill="white"/>
<path d="M63.0714 70.8556V45.8131H66.8997C69.192 45.8131 70.8817 46.4264 71.9688 47.653C73.0558 48.8682 73.5993 50.6626 73.5993 53.0362C73.5993 54.4445 73.3394 55.6654 72.8195 56.6989C72.3114 57.7211 71.6911 58.4706 70.9585 58.9476L73.5639 70.8556H69.7356L67.5732 60.2935H66.8997V70.8556H63.0714ZM66.8997 56.8863C67.6087 56.8863 68.17 56.7387 68.5835 56.4434C68.9971 56.1367 69.2925 55.7052 69.4697 55.1487C69.6469 54.5922 69.7356 53.9335 69.7356 53.1725C69.7356 51.98 69.5288 51.0658 69.1152 50.4298C68.7135 49.7824 67.975 49.4587 66.8997 49.4587V56.8863Z" fill="white"/>
<path d="M83.6105 71.1282C82.5589 71.1282 81.7023 70.8897 81.0406 70.4127C80.3789 69.9357 79.8885 69.2883 79.5695 68.4706C79.2623 67.6529 79.1087 66.733 79.1087 65.7108V50.9579C79.1087 49.9471 79.3155 49.0328 79.729 48.2151C80.1426 47.3974 80.7334 46.7501 81.5014 46.2731C82.2694 45.7847 83.1734 45.5405 84.2132 45.5405C85.0048 45.5405 85.7138 45.6825 86.34 45.9664C86.9781 46.239 87.5157 46.6251 87.9529 47.1248C88.4019 47.6246 88.7386 48.2038 88.9631 48.8625C89.1994 49.5098 89.3176 50.2083 89.3176 50.9579V54.808H85.4893V50.9579C85.4893 50.4582 85.3947 50.0266 85.2057 49.6632C85.0166 49.2997 84.6858 49.118 84.2132 49.118C83.7523 49.118 83.4215 49.3111 83.2206 49.6972C83.0316 50.072 82.937 50.4922 82.937 50.9579V66.0175C82.937 66.5058 83.0375 66.9374 83.2383 67.3122C83.4392 67.6756 83.7641 67.8573 84.2132 67.8573C84.6858 67.8573 85.0166 67.6756 85.2057 67.3122C85.3947 66.9374 85.4893 66.5058 85.4893 66.0175V61.8267H83.965V58.3855H89.3176V70.8556H87.049L86.5881 69.4927C86.2573 70.0038 85.8319 70.407 85.312 70.7023C84.8039 70.9862 84.2368 71.1282 83.6105 71.1282Z" fill="white"/>
<path d="M94.9106 70.8556L98.8453 45.8131H103.524L107.459 70.8556H103.737L103.028 65.7449H99.3415L98.6326 70.8556H94.9106ZM99.8732 61.8607H102.496L101.397 53.4451L101.291 52.1163H101.078L100.972 53.4451L99.8732 61.8607Z" fill="white"/>
<path d="M113.03 70.8556V45.8131H116.611L120.155 58.8625L120.474 60.0209H120.687V45.8131H124.196V70.8556H120.971L117.071 57.8062L116.752 56.6478H116.54V70.8556H113.03Z" fill="white"/>
<path d="M135.488 71.1282C134.424 71.1282 133.508 70.8897 132.74 70.4127C131.984 69.9357 131.399 69.2883 130.986 68.4706C130.584 67.6529 130.383 66.733 130.383 65.7108V50.9579C130.383 49.9244 130.584 49.0045 130.986 48.1981C131.399 47.3804 131.984 46.733 132.74 46.256C133.508 45.779 134.424 45.5405 135.488 45.5405C136.551 45.5405 137.461 45.779 138.217 46.256C138.985 46.733 139.57 47.3804 139.972 48.1981C140.385 49.0158 140.592 49.9357 140.592 50.9579V65.7108C140.592 66.733 140.385 67.6529 139.972 68.4706C139.57 69.2883 138.985 69.9357 138.217 70.4127C137.461 70.8897 136.551 71.1282 135.488 71.1282ZM135.488 67.5507C135.96 67.5507 136.291 67.3633 136.48 66.9885C136.669 66.6023 136.764 66.1765 136.764 65.7108V50.9579C136.764 50.4922 136.663 50.072 136.462 49.6972C136.262 49.3111 135.937 49.118 135.488 49.118C135.05 49.118 134.725 49.3111 134.513 49.6972C134.312 50.072 134.211 50.4922 134.211 50.9579V65.7108C134.211 66.1765 134.312 66.6023 134.513 66.9885C134.714 67.3633 135.039 67.5507 135.488 67.5507Z" fill="white"/>
<path d="M146.81 70.8556V45.8131H155.92V49.595H150.638V56.1708H154.183V59.9527H150.638V70.8556H146.81Z" fill="white"/>
<path d="M161.016 70.8556V45.8131H164.845V67.4485H169.914V70.8556H161.016Z" fill="white"/>
<path d="M175.015 70.8556V45.8131H178.844V70.8556H175.015Z" fill="white"/>
<path d="M184.355 70.8556L188.573 57.704L184.426 45.8131H188.183L190.275 52.1504L190.381 52.6274H190.523L190.629 52.1504L192.721 45.8131H196.478L192.331 57.704L196.549 70.8556H192.791L190.594 63.394L190.523 62.917H190.381L190.31 63.394L188.112 70.8556H184.355Z" fill="white"/>
</svg>
